<mxfile host="Electron" modified="2024-05-14T13:06:07.551Z" agent="Mozilla/5.0 (Windows NT 10.0; Win64; x64) AppleWebKit/537.36 (KHTML, like Gecko) draw.io/23.1.5 Chrome/120.0.6099.109 Electron/28.1.0 Safari/537.36" etag="xZ9IKyC8NoMuOozXvYp5" version="23.1.5" type="device">
  <diagram name="Page-1" id="Nt8wFf-H05gsO3RVkpsL">
    <mxGraphModel dx="2395" dy="1645" grid="1" gridSize="10" guides="1" tooltips="1" connect="1" arrows="1" fold="1" page="1" pageScale="1" pageWidth="850" pageHeight="1100" math="0" shadow="0">
      <root>
        <mxCell id="0" />
        <mxCell id="1" parent="0" />
        <mxCell id="rXDnncrWfvKbzRJIYzrd-32" value="" style="triangle;whiteSpace=wrap;html=1;direction=north;fillColor=#fff2cc;strokeColor=#d6b656;" vertex="1" parent="1">
          <mxGeometry x="435" y="785" width="80" height="60" as="geometry" />
        </mxCell>
        <mxCell id="rXDnncrWfvKbzRJIYzrd-23" value="" style="shape=ext;double=1;rounded=0;whiteSpace=wrap;html=1;" vertex="1" parent="1">
          <mxGeometry x="430" y="580" width="90" height="230" as="geometry" />
        </mxCell>
        <mxCell id="rXDnncrWfvKbzRJIYzrd-1" value="" style="endArrow=none;html=1;rounded=0;strokeWidth=3;" edge="1" parent="1">
          <mxGeometry width="50" height="50" relative="1" as="geometry">
            <mxPoint x="300" y="810" as="sourcePoint" />
            <mxPoint x="300" y="220" as="targetPoint" />
          </mxGeometry>
        </mxCell>
        <mxCell id="rXDnncrWfvKbzRJIYzrd-4" value="" style="fontColor=#0066CC;verticalAlign=top;verticalLabelPosition=bottom;labelPosition=center;align=center;html=1;outlineConnect=0;fillColor=#CCCCCC;strokeColor=#6881B3;gradientColor=none;gradientDirection=north;strokeWidth=2;shape=mxgraph.networks.laptop;" vertex="1" parent="1">
          <mxGeometry x="55" y="480" width="100" height="55" as="geometry" />
        </mxCell>
        <mxCell id="rXDnncrWfvKbzRJIYzrd-5" value="&lt;b&gt;GROUND-STATION&lt;/b&gt;" style="text;html=1;align=center;verticalAlign=middle;resizable=0;points=[];autosize=1;strokeColor=none;fillColor=none;" vertex="1" parent="1">
          <mxGeometry x="40" y="440" width="130" height="30" as="geometry" />
        </mxCell>
        <mxCell id="rXDnncrWfvKbzRJIYzrd-7" value="" style="sketch=0;pointerEvents=1;shadow=0;dashed=0;html=1;strokeColor=none;fillColor=#005F4B;labelPosition=center;verticalLabelPosition=bottom;verticalAlign=top;align=center;outlineConnect=0;shape=mxgraph.veeam2.laptop;" vertex="1" parent="1">
          <mxGeometry x="865" y="453.5" width="140" height="68" as="geometry" />
        </mxCell>
        <mxCell id="rXDnncrWfvKbzRJIYzrd-8" value="&lt;b&gt;MOTOR IGNITION STATION&lt;/b&gt;" style="text;html=1;align=center;verticalAlign=middle;resizable=0;points=[];autosize=1;strokeColor=none;fillColor=none;" vertex="1" parent="1">
          <mxGeometry x="860" y="413.5" width="180" height="30" as="geometry" />
        </mxCell>
        <mxCell id="rXDnncrWfvKbzRJIYzrd-9" value="" style="rounded=1;whiteSpace=wrap;html=1;strokeWidth=2;fillWeight=4;hachureGap=8;hachureAngle=45;fillColor=#1ba1e2;sketch=1;direction=south;" vertex="1" parent="1">
          <mxGeometry x="430" y="260" width="85" height="210" as="geometry" />
        </mxCell>
        <mxCell id="rXDnncrWfvKbzRJIYzrd-14" value="&lt;b&gt;FLIGHT-COMPUTER&lt;/b&gt;" style="text;html=1;align=center;verticalAlign=middle;resizable=0;points=[];autosize=1;strokeColor=none;fillColor=none;" vertex="1" parent="1">
          <mxGeometry x="402.5" y="220" width="140" height="30" as="geometry" />
        </mxCell>
        <mxCell id="rXDnncrWfvKbzRJIYzrd-15" value="" style="endArrow=classic;html=1;rounded=0;entryX=0.795;entryY=0.829;entryDx=0;entryDy=0;entryPerimeter=0;" edge="1" parent="1" source="rXDnncrWfvKbzRJIYzrd-7" target="rXDnncrWfvKbzRJIYzrd-17">
          <mxGeometry relative="1" as="geometry">
            <mxPoint x="640" y="430" as="sourcePoint" />
            <mxPoint x="610" y="390" as="targetPoint" />
          </mxGeometry>
        </mxCell>
        <mxCell id="rXDnncrWfvKbzRJIYzrd-16" value="&quot;arming&quot;" style="edgeLabel;resizable=0;html=1;;align=center;verticalAlign=middle;" connectable="0" vertex="1" parent="rXDnncrWfvKbzRJIYzrd-15">
          <mxGeometry relative="1" as="geometry" />
        </mxCell>
        <mxCell id="rXDnncrWfvKbzRJIYzrd-18" value="Publish" style="text;html=1;align=center;verticalAlign=middle;resizable=0;points=[];autosize=1;strokeColor=none;fillColor=none;" vertex="1" parent="1">
          <mxGeometry x="780" y="380" width="60" height="30" as="geometry" />
        </mxCell>
        <mxCell id="rXDnncrWfvKbzRJIYzrd-19" value="" style="endArrow=classic;html=1;rounded=0;entryX=0.447;entryY=-0.015;entryDx=0;entryDy=0;entryPerimeter=0;" edge="1" parent="1" target="rXDnncrWfvKbzRJIYzrd-9">
          <mxGeometry relative="1" as="geometry">
            <mxPoint x="663" y="356" as="sourcePoint" />
            <mxPoint x="540" y="290" as="targetPoint" />
          </mxGeometry>
        </mxCell>
        <mxCell id="rXDnncrWfvKbzRJIYzrd-20" value="&quot;arming&quot;" style="edgeLabel;resizable=0;html=1;;align=center;verticalAlign=middle;" connectable="0" vertex="1" parent="rXDnncrWfvKbzRJIYzrd-19">
          <mxGeometry relative="1" as="geometry" />
        </mxCell>
        <mxCell id="rXDnncrWfvKbzRJIYzrd-17" value="" style="ellipse;shape=cloud;whiteSpace=wrap;html=1;" vertex="1" parent="1">
          <mxGeometry x="640" y="335" width="130" height="60" as="geometry" />
        </mxCell>
        <mxCell id="rXDnncrWfvKbzRJIYzrd-21" value="(&lt;i&gt;solid propulsion team)&lt;/i&gt;" style="text;html=1;align=center;verticalAlign=middle;resizable=0;points=[];autosize=1;strokeColor=none;fillColor=none;" vertex="1" parent="1">
          <mxGeometry x="1030" y="410" width="140" height="30" as="geometry" />
        </mxCell>
        <mxCell id="rXDnncrWfvKbzRJIYzrd-22" value="" style="ellipse;whiteSpace=wrap;html=1;strokeWidth=2;fillWeight=2;hachureGap=8;fillColor=#990000;fillStyle=dots;sketch=1;" vertex="1" parent="1">
          <mxGeometry x="441.25" y="580" width="67.5" height="230" as="geometry" />
        </mxCell>
        <mxCell id="rXDnncrWfvKbzRJIYzrd-24" value="" style="endArrow=classic;html=1;rounded=0;entryX=1;entryY=0.5;entryDx=0;entryDy=0;" edge="1" parent="1" source="rXDnncrWfvKbzRJIYzrd-7" target="rXDnncrWfvKbzRJIYzrd-23">
          <mxGeometry width="50" height="50" relative="1" as="geometry">
            <mxPoint x="670" y="590" as="sourcePoint" />
            <mxPoint x="720" y="540" as="targetPoint" />
          </mxGeometry>
        </mxCell>
        <mxCell id="rXDnncrWfvKbzRJIYzrd-28" value="&quot;ignite&quot;" style="edgeLabel;html=1;align=center;verticalAlign=middle;resizable=0;points=[];" vertex="1" connectable="0" parent="rXDnncrWfvKbzRJIYzrd-24">
          <mxGeometry x="-0.0951" relative="1" as="geometry">
            <mxPoint as="offset" />
          </mxGeometry>
        </mxCell>
        <mxCell id="rXDnncrWfvKbzRJIYzrd-27" value="(1) When solid propulsion team presses&amp;nbsp;&lt;br&gt;the &quot;IGNITE&quot; button, send &quot;arming&quot; message&lt;br&gt;to the &lt;b&gt;FLIGHT COMPUTER &lt;/b&gt;over MQTT.&amp;nbsp;&lt;br&gt;This is done to arm the flight computer and transition it from &lt;b&gt;SAFE_MODE&lt;br&gt;&lt;/b&gt;to &lt;b&gt;FLIGHT_MODE&lt;/b&gt;&lt;br&gt;&lt;br&gt;(1) All these devices &lt;b&gt;MUST&amp;nbsp;&lt;/b&gt;&amp;nbsp;on the same WIFI network for the&lt;br&gt;pub/sub scheme to work&lt;br&gt;&lt;br&gt;(2) The countdown should be at-least 1 minute to allow the ground-station crew to&amp;nbsp;&lt;br&gt;confirm data is being received on the telemetry software after FLIGHT_MODE has been activated" style="text;html=1;align=center;verticalAlign=middle;resizable=0;points=[];autosize=1;strokeColor=none;fillColor=none;" vertex="1" parent="1">
          <mxGeometry x="220" y="890" width="540" height="170" as="geometry" />
        </mxCell>
        <mxCell id="rXDnncrWfvKbzRJIYzrd-29" value="&lt;b&gt;ROCKET MOTOR&lt;/b&gt;" style="text;html=1;align=center;verticalAlign=middle;resizable=0;points=[];autosize=1;strokeColor=none;fillColor=none;" vertex="1" parent="1">
          <mxGeometry x="415" y="550" width="120" height="30" as="geometry" />
        </mxCell>
        <mxCell id="rXDnncrWfvKbzRJIYzrd-33" value="Ignite starts the countdown to motor ignition&lt;div&gt;&lt;br/&gt;&lt;/div&gt;" style="text;html=1;align=center;verticalAlign=middle;resizable=0;points=[];autosize=1;strokeColor=none;fillColor=none;" vertex="1" parent="1">
          <mxGeometry x="690" y="620" width="260" height="40" as="geometry" />
        </mxCell>
        <mxCell id="rXDnncrWfvKbzRJIYzrd-34" value="PROPOSED FLIGHT COMPUTER ARMING USING SOLID PROPULSION&lt;br&gt;IGNITION SYSTEM &lt;i&gt;(&lt;span style=&quot;font-weight: 400;&quot;&gt;rev 1)&lt;/span&gt;&lt;/i&gt;" style="text;strokeColor=none;fillColor=none;html=1;fontSize=24;fontStyle=1;verticalAlign=middle;align=center;" vertex="1" parent="1">
          <mxGeometry x="600" y="130" width="100" height="40" as="geometry" />
        </mxCell>
        <mxCell id="rXDnncrWfvKbzRJIYzrd-36" value="" style="endArrow=classic;html=1;rounded=0;" edge="1" parent="1" target="rXDnncrWfvKbzRJIYzrd-4">
          <mxGeometry width="50" height="50" relative="1" as="geometry">
            <mxPoint x="300" y="390" as="sourcePoint" />
            <mxPoint x="170" y="445" as="targetPoint" />
          </mxGeometry>
        </mxCell>
        <mxCell id="rXDnncrWfvKbzRJIYzrd-37" value="" style="endArrow=classic;html=1;rounded=0;entryX=0.614;entryY=0.988;entryDx=0;entryDy=0;entryPerimeter=0;exitX=0.614;exitY=0.988;exitDx=0;exitDy=0;exitPerimeter=0;" edge="1" parent="1" source="rXDnncrWfvKbzRJIYzrd-9">
          <mxGeometry width="50" height="50" relative="1" as="geometry">
            <mxPoint x="380" y="363.5" as="sourcePoint" />
            <mxPoint x="300" y="390" as="targetPoint" />
          </mxGeometry>
        </mxCell>
        <mxCell id="rXDnncrWfvKbzRJIYzrd-38" value="Publish flight data" style="text;html=1;align=center;verticalAlign=middle;resizable=0;points=[];autosize=1;strokeColor=none;fillColor=none;" vertex="1" parent="1">
          <mxGeometry x="305" y="365" width="120" height="30" as="geometry" />
        </mxCell>
        <mxCell id="rXDnncrWfvKbzRJIYzrd-39" value="Receive flight data" style="text;html=1;align=center;verticalAlign=middle;resizable=0;points=[];autosize=1;strokeColor=none;fillColor=none;" vertex="1" parent="1">
          <mxGeometry x="140" y="395" width="120" height="30" as="geometry" />
        </mxCell>
        <mxCell id="rXDnncrWfvKbzRJIYzrd-40" value="Notes:" style="text;strokeColor=none;fillColor=none;html=1;fontSize=24;fontStyle=1;verticalAlign=middle;align=center;" vertex="1" parent="1">
          <mxGeometry x="430" y="860" width="100" height="40" as="geometry" />
        </mxCell>
        <mxCell id="rXDnncrWfvKbzRJIYzrd-41" value="On receiving this command, transition&lt;br&gt;from &lt;b&gt;SAFE_MODE &lt;/b&gt;to&lt;b&gt;&amp;nbsp;FLIGHT_MODE&lt;/b&gt;" style="text;html=1;align=center;verticalAlign=middle;resizable=0;points=[];autosize=1;strokeColor=none;fillColor=none;" vertex="1" parent="1">
          <mxGeometry x="520" y="280" width="230" height="40" as="geometry" />
        </mxCell>
      </root>
    </mxGraphModel>
  </diagram>
</mxfile>
